# xmcd CD database file
#
# Track frame offsets:
#	150
#	27089
#	44633
#	70311
#	87396
#	110995
#	126781
#	150522
#	172357
#	194583
#	219642
#	247357
#	274282
#	302194
#
# Disc length: 4316 seconds
#
# Revision: 0
# Processed by: cddbd v1.5.1PL0 Copyright (c) Steve Scherf et al.
# Submitted via: CDex 1.51
#
DISCID=e410da0e
DTITLE=Ruhestand - Wir müssen hier raus
DYEAR=2003
DGENRE=Jazz
TTITLE0=Franky goes
TTITLE1=Not happy
TTITLE2=Polakow
TTITLE3=Guapa
TTITLE4=Nothing to do at Lago Puelo
TTITLE5=The Circle
TTITLE6=Jenachrum wie du stehst
TTITLE7=Like Schroeder
TTITLE8=Paris
TTITLE9=Quietly climbing up the Stairs
TTITLE10=Kleiner Heldensong
TTITLE11=Serotonin
TTITLE12=Wir müssen hier raus
TTITLE13=Wir müssen hier raus (Video Remix)
EXTD=YEAR: 2003
EXTT0=
EXTT1=
EXTT2=
EXTT3=
EXTT4=
EXTT5=
EXTT6=
EXTT7=
EXTT8=
EXTT9=
EXTT10=
EXTT11=
EXTT12=
EXTT13=
PLAYORDER=
